<svg version="1.1" id="Layer_1" xmlns="http://www.w3.org/2000/svg" xmlns:xlink="http://www.w3.org/1999/xlink" x="0px" y="0px"
	 width="100%" viewBox="0 0 951 782" enable-background="new 0 0 951 782" xml:space="preserve">
<path fill="#FEFEFE" opacity="1.000000" stroke="none" 
	d="
M570.000000,783.000000 
	C380.000061,783.000000 190.500107,783.000000 1.000127,783.000000 
	C1.000085,522.333496 1.000085,261.666931 1.000042,1.000302 
	C317.999786,1.000201 634.999573,1.000201 951.999512,1.000101 
	C951.999634,261.666351 951.999634,522.332703 951.999817,782.999512 
	C824.833313,783.000000 697.666687,783.000000 570.000000,783.000000 
M447.192596,453.106445 
	C447.192596,453.106445 447.407013,453.380127 448.026245,453.138275 
	C452.662445,448.692810 457.298645,444.247345 462.615417,439.899170 
	C463.058899,439.797882 463.502380,439.696594 464.739624,439.840698 
	C468.850983,440.427155 468.850983,437.707703 468.845673,434.846252 
	C468.817383,419.688904 468.831177,404.531464 468.830505,389.374054 
	C468.830322,384.974152 468.830475,380.574249 468.830475,376.083801 
	C463.633331,377.607544 458.997589,379.682404 454.185272,380.243927 
	C439.485992,381.959229 426.749451,377.176208 415.911072,367.065826 
	C415.911072,367.065826 415.752777,367.079681 415.742767,366.591187 
	C415.583710,366.243622 415.315430,366.100006 414.956085,366.064514 
	C414.956085,366.064514 414.858734,366.070038 414.753448,365.393097 
	C413.802032,364.026337 412.897949,362.623596 411.891998,361.298218 
	C399.047943,344.375214 401.791199,318.368256 417.866211,304.260315 
	C431.655609,292.158295 447.464905,289.442719 464.776703,295.620819 
	C465.938080,296.035248 467.177216,296.231689 468.696960,296.607941 
	C468.696960,276.037811 468.696960,255.961502 468.696960,235.848785 
	C445.294220,235.848785 422.255035,235.848785 398.264130,235.848785 
	C402.600098,250.675079 402.216431,264.620361 394.652252,277.498535 
	C386.874939,290.739532 374.947174,298.101501 359.611511,299.011047 
	C343.064056,299.992493 329.820251,293.680084 320.559204,279.590363 
	C311.351318,265.581512 311.932220,250.694702 317.103302,235.444565 
	C307.223206,235.444565 298.085297,235.444565 288.032288,235.268005 
	C279.708893,235.385193 271.385529,235.502380 262.250488,235.273407 
	C259.171173,235.273407 256.091858,235.273407 252.529587,235.273407 
	C252.529587,242.060425 252.460312,248.649246 252.545029,255.236099 
	C252.689804,266.494171 252.931076,277.751038 252.978729,289.658691 
	C253.026459,290.098724 253.074173,290.538727 252.890564,291.773010 
	C253.009125,295.492859 253.127686,299.212738 253.053741,303.821747 
	C253.114960,306.535065 253.176178,309.248413 252.988953,312.754852 
	C253.074356,313.849396 253.159760,314.943970 253.075851,316.905914 
	C253.138596,319.257660 253.201340,321.609406 253.025436,324.844360 
	C253.109039,327.578278 253.192657,330.312225 253.094467,333.932953 
	C253.136963,336.954865 253.179443,339.976776 252.992844,343.897919 
	C253.075089,347.613983 253.157333,351.330048 253.070892,355.932892 
	C253.124496,358.940430 253.178101,361.947937 253.006516,365.862091 
	C253.110336,369.590790 253.214157,373.319519 253.135101,377.671417 
	C253.179947,378.097992 253.224792,378.524567 253.065598,379.855164 
	C252.363159,409.894073 271.733765,432.951874 294.446533,438.317108 
	C306.227570,441.100006 318.824860,440.845245 331.068665,441.049591 
	C336.112946,441.133789 337.155792,442.386322 337.109131,447.073669 
	C336.799530,478.169861 336.745117,509.268616 336.614441,540.366516 
	C336.595184,544.947327 336.611755,549.528259 336.611755,554.109070 
	C337.192108,554.358643 337.772491,554.608154 338.352844,554.857666 
	C341.523071,551.880859 344.693268,548.904053 347.948273,545.945801 
	C347.948273,545.945801 347.926910,545.861694 348.556946,545.645203 
	C355.726501,538.973206 362.919769,532.326355 370.060303,525.623413 
	C381.654327,514.739868 393.213806,503.819489 405.358124,492.691101 
	C405.885406,492.080414 406.412720,491.469757 407.610260,490.808014 
	C418.355408,480.511475 429.100586,470.214935 439.935394,459.933014 
	C439.935394,459.933014 439.921021,459.843353 440.590149,459.788483 
	C442.848938,457.661469 445.107758,455.534485 447.192596,453.106445 
M628.408142,164.768311 
	C620.566040,160.907608 612.739136,160.151718 604.251343,165.000397 
	C594.590698,170.571671 590.472656,179.313812 591.830750,189.955353 
	C593.201416,200.695633 598.037109,209.512085 610.113281,212.952408 
	C609.348572,218.853409 611.762207,224.717590 607.555298,230.827881 
	C605.061279,234.450256 603.120239,235.281891 599.640442,235.289612 
	C565.157410,235.366104 530.673401,235.577545 496.192352,235.347855 
	C491.015839,235.313400 490.120758,237.093491 490.133270,241.525803 
	C490.271790,290.668976 490.279297,339.812469 490.345306,388.955872 
	C490.366089,404.443939 490.491272,419.931946 490.483765,435.419952 
	C490.482300,438.430603 491.269196,439.895294 494.720001,439.891235 
	C547.033813,439.829559 599.351074,440.218384 651.659851,439.711792 
	C667.400452,439.559357 680.859070,432.492645 691.593201,419.946564 
	C691.757812,419.657715 691.922485,419.368835 692.675659,418.761383 
	C694.690369,415.721710 696.972473,412.823547 698.670166,409.616058 
	C703.949280,399.641785 705.107971,388.828461 705.077393,377.701874 
	C704.971497,339.243469 705.043457,300.784576 705.067078,262.325867 
	C705.071655,254.840240 705.048645,247.351410 705.262512,239.870453 
	C705.373291,235.998062 703.989746,234.750381 700.016113,234.796463 
	C677.212219,235.061050 654.404846,235.016113 631.599426,235.184814 
	C629.075500,235.203476 627.963135,234.497253 626.872498,232.034012 
	C623.970703,225.480087 624.754333,218.767609 625.632202,211.686172 
	C643.594604,205.223358 646.552979,174.652756 628.408142,164.768311 
M467.607086,347.669098 
	C469.878754,344.373718 472.633942,341.929138 476.938629,341.705627 
	C477.998383,341.650604 479.269928,341.006683 479.993317,340.219330 
	C481.117279,338.995972 482.844025,337.112183 482.519958,336.062775 
	C482.056610,334.562378 480.158142,333.087860 478.539490,332.457062 
	C475.962341,331.452698 473.110657,331.152802 470.253662,330.252991 
	C470.253662,330.252991 470.064697,329.988007 470.128143,329.352570 
	C469.827240,328.823700 469.526306,328.294830 469.002960,327.116547 
	C468.308075,325.982300 467.680511,324.799835 466.907593,323.721527 
	C461.037445,315.532379 451.276733,312.223846 441.770264,315.165344 
	C432.928375,317.901184 426.433319,326.502258 426.295380,335.657959 
	C426.145111,345.630798 431.694366,353.965363 440.465485,356.940491 
	C451.008545,360.516663 459.798187,357.563232 467.607086,347.669098 
M892.750854,764.886658 
	C897.823669,763.006714 902.896484,761.126831 908.678955,759.070618 
	C912.789673,756.053955 916.900391,753.037292 921.640137,749.793884 
	C923.107971,747.568909 924.575806,745.343933 926.630615,742.661987 
	C931.029785,734.266357 932.564819,725.343994 932.252625,715.887024 
	C931.714172,699.582947 921.920288,684.296204 906.366699,679.045044 
	C891.960388,674.181274 877.011169,670.929443 862.314880,666.917114 
	C860.244446,666.351807 858.172058,665.667664 856.239624,664.746826 
	C850.241394,661.888794 848.050598,658.262573 848.751404,652.738220 
	C849.327820,648.194397 852.605957,645.156555 858.847656,643.925598 
	C869.502136,641.824463 880.101135,642.949097 890.540588,645.328186 
	C899.107788,647.280579 907.576660,649.687500 916.034180,652.086792 
	C919.832764,653.164368 921.188354,652.066711 921.139343,648.135071 
	C921.035645,639.812439 920.933777,631.469666 921.405396,623.167786 
	C921.672607,618.464539 919.848145,616.478516 915.622803,614.954285 
	C897.596375,608.451721 878.992615,606.842407 860.081909,608.071594 
	C849.191833,608.779358 838.706238,611.614746 829.329895,617.335754 
	C814.598999,626.323730 807.321167,646.050476 810.705994,665.621155 
	C812.870972,678.138855 818.147339,688.572632 830.106323,693.937500 
	C837.748535,697.365784 845.957031,699.598328 854.018677,702.008972 
	C864.485046,705.138550 875.121094,707.707947 885.553345,710.940674 
	C889.693665,712.223694 892.870605,715.456787 892.802673,720.107117 
	C892.736389,724.645508 889.203186,726.830505 885.352478,728.530396 
	C875.139954,733.038818 864.584473,731.537476 854.441040,729.291199 
	C842.681458,726.686951 831.246643,722.582458 819.720398,718.971191 
	C812.649231,716.755798 811.929810,716.866150 811.527039,724.332642 
	C811.007507,733.966187 810.934998,743.638245 811.147644,753.283203 
	C811.184326,754.943848 813.278320,757.448486 814.962402,758.049927 
	C840.019714,766.998962 865.708862,769.391113 892.750854,764.886658 
M469.418518,18.169472 
	C469.519836,15.182133 469.430145,12.172924 469.769073,9.212790 
	C470.230621,5.181835 468.733368,4.255965 464.718781,4.273928 
	C414.234375,4.499816 363.749054,4.537809 313.263947,4.553922 
	C301.164764,4.557784 289.604828,6.883863 279.498993,13.611606 
	C261.506866,25.589483 252.802231,42.841572 252.769073,64.345970 
	C252.698685,110.007973 252.801895,155.670227 252.833267,201.332382 
	C252.835953,205.262970 252.833618,209.193558 252.833618,213.739853 
	C257.534760,213.739853 261.503082,213.740067 265.471436,213.739792 
	C331.298615,213.735397 397.125763,213.717499 462.952942,213.746521 
	C469.843628,213.749573 469.876678,213.837280 469.848114,206.899521 
	C469.755524,184.411133 469.640656,161.922791 469.587433,139.434311 
	C469.492401,99.285164 469.436096,59.135929 469.418518,18.169472 
M673.685486,10.716444 
	C665.492432,8.791567 657.317688,5.296210 649.103271,5.200197 
	C600.785156,4.635438 552.457764,4.862840 504.133514,4.824107 
	C500.207062,4.820960 496.280579,4.823691 491.992371,4.823691 
	C491.992371,26.272930 491.992371,46.996387 491.992371,68.683723 
	C501.208191,62.149906 511.051971,61.418495 521.362061,62.816322 
	C532.121277,64.275040 540.764893,69.411339 547.629700,77.533638 
	C559.789368,91.920837 562.455322,112.141586 553.053467,127.317841 
	C538.289062,151.150146 517.241211,157.064621 491.629456,146.655563 
	C491.629456,168.780777 491.629456,190.852051 491.629456,213.092758 
	C520.262634,213.092758 548.460754,213.092758 577.925476,213.092758 
	C570.016479,202.206879 568.526306,190.681839 570.028442,178.938721 
	C571.591370,166.720123 577.798523,156.194916 587.507202,149.023819 
	C604.080750,136.782227 624.109741,135.335831 641.207214,146.522766 
	C650.046021,152.305984 656.467041,160.244781 659.725403,169.988876 
	C664.768433,185.070145 663.226929,199.826004 653.522705,213.059509 
	C670.939453,213.059509 687.644958,213.059509 704.665039,213.059509 
	C704.665039,207.296829 704.653320,202.165466 704.666870,197.034180 
	C704.783203,153.038666 704.870422,109.043015 705.036987,65.047684 
	C705.127502,41.144394 694.825928,23.211170 673.685486,10.716444 
M166.422256,708.509460 
	C166.421371,695.028137 166.412491,681.546875 166.421219,668.065552 
	C166.441696,636.428345 166.489426,604.791199 166.485229,573.153992 
	C166.483887,562.993835 166.362625,552.833618 166.279083,542.673584 
	C166.252487,539.439209 165.102386,537.099487 161.404266,537.085266 
	C150.778870,537.044312 140.151245,537.150146 129.529099,536.951355 
	C126.005119,536.885376 124.888863,538.135376 124.892418,541.582947 
	C124.918129,566.497559 124.810738,591.412415 124.699699,616.326965 
	C124.690697,618.346008 124.339966,620.363403 123.974251,624.208862 
	C116.437637,614.327087 106.170898,612.354065 96.839653,610.257080 
	C75.995613,605.572937 56.615768,611.528748 40.214725,624.541931 
	C4.908788,652.554810 0.286198,707.312378 29.628506,741.456726 
	C54.571945,770.482361 101.071655,776.023865 127.688278,750.116089 
	C128.710754,751.434143 129.657654,752.780151 130.731033,754.016296 
	C134.946259,758.870728 139.556122,763.685242 146.334198,763.878723 
	C158.641846,764.229980 170.971451,763.847961 183.291275,763.714417 
	C186.683273,763.677612 188.479889,761.956421 188.486481,758.420044 
	C188.500748,750.764587 188.872803,743.098694 188.577835,735.457153 
	C188.346512,729.465149 185.236389,726.710022 179.031372,725.980774 
	C174.969971,725.503479 170.891617,725.170532 166.355820,724.727539 
	C166.355820,719.391296 166.355820,714.402771 166.422256,708.509460 
M569.203613,624.283142 
	C551.070984,611.192505 530.627808,605.912292 508.788879,609.316162 
	C480.597504,613.710083 459.428040,628.734802 447.413849,655.251404 
	C440.327148,670.892456 438.425262,687.456238 442.395081,703.988953 
	C450.223755,736.592346 470.467133,758.421082 503.591888,764.993958 
	C535.523621,771.330139 563.084473,761.560730 583.881531,735.638611 
	C612.064087,700.510925 603.035339,650.117493 569.203613,624.283142 
M342.308990,758.918213 
	C392.043091,734.345703 398.872375,674.430298 369.554565,637.436157 
	C347.961121,610.188782 309.338806,600.192200 274.764252,615.927429 
	C246.420853,628.826782 230.423157,651.221008 228.513443,682.229126 
	C226.640991,712.632446 239.065292,737.082397 264.583038,753.835510 
	C288.976288,769.850342 315.002686,770.571411 342.308990,758.918213 
M673.774292,763.834595 
	C681.766052,763.785767 689.758728,763.642639 697.749268,763.720947 
	C703.163330,763.773926 704.746765,761.065979 704.723145,755.990967 
	C704.624573,734.834412 704.801697,713.676758 704.850220,692.519409 
	C704.878723,680.091309 704.855408,667.663086 704.855408,654.155579 
	C714.202698,652.573730 723.119812,650.228333 732.135254,649.754944 
	C742.905396,649.189453 753.766174,650.096008 764.573792,650.641174 
	C768.193298,650.823792 769.763672,649.935242 769.714905,646.061646 
	C769.595703,636.584045 769.618530,627.097351 769.923767,617.625366 
	C770.044495,613.878662 768.630066,612.246460 765.124878,611.442627 
	C747.978882,607.510559 731.109619,608.013489 714.612061,614.409363 
	C710.741333,615.910034 707.069458,617.923828 703.123901,619.787659 
	C702.389221,612.786560 702.389343,612.796631 695.294922,612.863953 
	C692.629028,612.889221 689.962524,612.850952 687.296326,612.850037 
	C679.666199,612.847473 672.036011,612.849121 664.092773,612.849121 
	C663.992493,614.776123 663.838379,616.411499 663.832825,618.047363 
	C663.766052,637.708252 663.730347,657.369141 663.668457,677.030090 
	C663.589844,702.021423 663.472046,727.012756 663.417480,752.004150 
	C663.394409,762.544678 663.448181,762.544800 673.774292,763.834595 
M516.096130,84.371284 
	C514.599548,84.381165 513.083679,84.238594 511.609558,84.425522 
	C501.599915,85.694824 494.739288,91.265625 491.165436,100.500534 
	C488.105621,108.407181 490.177795,115.524673 496.005280,121.596138 
	C502.866180,128.744293 511.361816,131.452271 520.578674,128.287750 
	C529.449829,125.241913 534.971741,118.409157 536.159973,108.733955 
	C537.631592,96.751236 530.036438,87.231239 516.096130,84.371284 
M343.459595,237.865189 
	C332.599548,246.422043 333.696442,260.309814 339.451294,268.290771 
	C346.819855,278.509705 358.494965,280.555389 368.975830,273.735291 
	C376.502045,268.837860 380.117157,261.535431 379.705200,252.507248 
	C379.304260,243.721497 374.576050,237.859772 366.480011,234.951447 
	C358.709869,232.160156 351.113556,233.032791 343.459595,237.865189 
z"/>
<path fill="#049494" opacity="1.000000" stroke="none" 
	d="
M469.391052,18.578100 
	C469.436096,59.135929 469.492401,99.285164 469.587433,139.434311 
	C469.640656,161.922791 469.755524,184.411133 469.848114,206.899521 
	C469.876678,213.837280 469.843628,213.749573 462.952942,213.746521 
	C397.125763,213.717499 331.298615,213.735397 265.471436,213.739792 
	C261.503082,213.740067 257.534760,213.739853 252.833618,213.739853 
	C252.833618,209.193558 252.835953,205.262970 252.833267,201.332382 
	C252.801895,155.670227 252.698685,110.007973 252.769073,64.345970 
	C252.802231,42.841572 261.506866,25.589483 279.498993,13.611606 
	C289.604828,6.883863 301.164764,4.557784 313.263947,4.553922 
	C363.749054,4.537809 414.234375,4.499816 464.718781,4.273928 
	C468.733368,4.255965 470.230621,5.181835 469.769073,9.212790 
	C469.430145,12.172924 469.519836,15.182133 469.391052,18.578100 
z"/>
<path fill="#04525A" opacity="1.000000" stroke="none" 
	d="
M463.945862,439.595276 
	C463.502380,439.696594 463.058899,439.797882 462.023804,439.599670 
	C455.324066,438.704163 453.885071,444.837067 450.002106,447.463501 
	C448.493347,448.484039 448.234955,451.353119 447.406982,453.380127 
	C447.407013,453.380127 447.192596,453.106445 446.907654,453.151428 
	C443.462128,454.477783 439.799225,455.252655 439.921021,459.843353 
	C439.921021,459.843353 439.935394,459.933014 439.533539,459.927795 
	C435.949371,462.190735 433.034241,465.061523 429.534271,466.613251 
	C419.310272,471.146210 416.011505,482.476990 407.392334,488.502594 
	C406.922211,488.831268 407.076385,490.053009 406.940002,490.859070 
	C406.412720,491.469757 405.885406,492.080414 404.715393,492.808441 
	C402.775055,493.602386 401.323669,494.087494 400.204407,494.986237 
	C392.127991,501.471252 383.999268,507.712616 377.055450,515.691101 
	C368.853851,525.114807 358.891510,532.998962 349.812286,541.675842 
	C348.786865,542.655823 348.536621,544.446777 347.926880,545.861694 
	C347.926910,545.861694 347.948273,545.945801 347.497955,545.939880 
	C342.689178,546.674316 340.490875,544.603088 339.911133,540.440125 
	C339.592804,538.154114 339.030029,535.866699 339.022308,533.578430 
	C338.952576,512.919250 338.983154,492.259674 338.980530,471.600250 
	C338.979401,462.515106 339.112061,453.425629 338.838623,444.348572 
	C338.786560,442.619385 337.197845,439.520935 336.175781,439.460510 
	C328.025665,438.978455 319.812103,439.467834 311.677307,438.862427 
	C306.031342,438.442261 300.478790,436.762634 294.885498,435.640961 
	C292.357147,435.133911 289.496704,435.195740 287.377075,433.974884 
	C283.538544,431.764038 279.858337,429.087585 276.629852,426.054352 
	C272.082520,421.782013 267.147186,417.540741 263.917206,412.331604 
	C258.077454,402.913544 256.077850,392.039612 254.899399,381.077393 
	C254.817886,380.319031 253.833923,379.657623 253.269623,378.951141 
	C253.224792,378.524567 253.179947,378.097992 253.591827,377.234924 
	C255.116455,372.758331 256.500946,368.696411 253.231689,364.955475 
	C253.178101,361.947937 253.124496,358.940430 253.502563,355.386414 
	C253.696808,350.892853 253.459366,346.945770 253.221924,342.998688 
	C253.179443,339.976776 253.136963,336.954865 253.547668,333.376953 
	C255.164230,329.750519 256.329132,326.679932 253.264069,323.961151 
	C253.201340,321.609406 253.138596,319.257660 253.483856,316.398254 
	C253.673691,314.580994 253.455536,313.271362 253.237381,311.961731 
	C253.176178,309.248413 253.114960,306.535065 253.396027,303.142639 
	C253.532852,298.635284 253.327377,294.807007 253.121887,290.978760 
	C253.074173,290.538727 253.026459,290.098724 253.313660,289.051514 
	C257.397339,278.765472 254.618896,268.883667 254.528702,259.090057 
	C254.473724,253.121033 254.061737,247.151855 254.151825,241.187912 
	C254.169724,240.003723 255.513855,238.235535 256.650085,237.807037 
	C258.586090,237.076950 260.842163,237.195465 263.055756,237.343521 
	C265.433472,238.064224 267.713562,238.601288 270.006744,238.664398 
	C271.613586,238.708618 273.226196,237.945084 274.857269,237.822571 
	C279.582092,237.467682 284.317535,237.254272 289.474365,236.985565 
	C297.701355,236.985809 305.502838,236.985809 313.463745,236.985809 
	C313.463745,238.873413 313.539215,240.310593 313.434601,241.734558 
	C313.374817,242.548416 313.008209,243.337296 312.802795,244.143265 
	C309.220703,258.198822 311.233307,271.654907 320.096069,282.897888 
	C325.511536,289.767700 331.548370,296.888763 341.589539,298.614258 
	C348.660339,299.829376 355.511627,302.278107 362.809387,300.947876 
	C368.247101,299.956757 374.467468,300.071838 378.864288,297.329498 
	C384.951263,293.532959 389.845001,287.699127 394.900452,282.404236 
	C401.217957,275.787506 401.344086,266.772675 402.737946,258.519562 
	C403.625153,253.266586 402.442810,247.642960 402.023560,242.198212 
	C401.759247,238.765686 402.575775,236.621994 406.578033,237.017548 
	C410.363525,237.391708 414.155640,237.822311 417.953217,237.928589 
	C432.730347,238.342148 447.509766,238.707428 462.290802,238.921738 
	C465.665863,238.970673 467.250519,240.081421 467.024902,243.584137 
	C466.645447,249.474915 466.127716,255.376343 466.166687,261.269989 
	C466.226929,270.383118 466.756592,279.492340 466.964050,288.606018 
	C467.002106,290.276367 466.454102,291.960052 466.086517,294.182404 
	C464.555420,293.233490 463.800201,292.445312 462.921814,292.268341 
	C446.058594,288.870209 430.052368,289.183289 416.575012,302.161255 
	C406.550598,311.814178 402.101715,323.743713 401.045868,337.262115 
	C400.506805,344.163483 404.655243,349.753113 406.210297,356.006836 
	C407.535248,361.335083 410.359222,364.104889 414.858734,366.070038 
	C414.858734,366.070038 414.956085,366.064514 415.013824,366.318665 
	C415.227997,366.836731 415.455078,367.005676 415.752777,367.079681 
	C415.752777,367.079681 415.911072,367.065826 415.913818,367.509125 
	C419.562744,371.742157 423.196075,375.544586 426.880402,379.296844 
	C427.165405,379.587158 427.806213,379.542389 428.286560,379.624512 
	C433.738373,380.556702 439.375061,380.913635 444.584167,382.595551 
	C448.589966,383.888947 451.798645,384.305573 455.831482,382.578705 
	C458.783813,381.314484 462.514557,381.868042 465.898346,381.611389 
	C465.637512,383.971924 465.375824,386.332397 465.117645,388.693207 
	C465.099701,388.857239 465.096588,389.024841 465.106140,389.189636 
	C465.609467,397.876343 466.240204,406.557983 466.584045,415.250946 
	C466.909332,423.474670 467.235931,431.743500 463.945862,439.595276 
z"/>
<path fill="#045259" opacity="1.000000" stroke="none" 
	d="
M674.031982,10.855604 
	C694.825928,23.211170 705.127502,41.144394 705.036987,65.047684 
	C704.870422,109.043015 704.783203,153.038666 704.666870,197.034180 
	C704.653320,202.165466 704.665039,207.296829 704.665039,213.059509 
	C687.644958,213.059509 670.939453,213.059509 653.522705,213.059509 
	C663.226929,199.826004 664.768433,185.070145 659.725403,169.988876 
	C656.467041,160.244781 650.046021,152.305984 641.207214,146.522766 
	C624.109741,135.335831 604.080750,136.782227 587.507202,149.023819 
	C577.798523,156.194916 571.591370,166.720123 570.028442,178.938721 
	C568.526306,190.681839 570.016479,202.206879 577.925476,213.092758 
	C548.460754,213.092758 520.262634,213.092758 491.629456,213.092758 
	C491.629456,190.852051 491.629456,168.780777 491.629456,146.655563 
	C517.241211,157.064621 538.289062,151.150146 553.053467,127.317841 
	C562.455322,112.141586 559.789368,91.920837 547.629700,77.533638 
	C540.764893,69.411339 532.121277,64.275040 521.362061,62.816322 
	C511.051971,61.418495 501.208191,62.149906 491.992371,68.683723 
	C491.992371,46.996387 491.992371,26.272930 491.992371,4.823691 
	C496.280579,4.823691 500.207062,4.820960 504.133514,4.824107 
	C552.457764,4.862840 600.785156,4.635438 649.103271,5.200197 
	C657.317688,5.296210 665.492432,8.791567 674.031982,10.855604 
z"/>
<path fill="#111111" opacity="1.000000" stroke="none" 
	d="
M166.389038,708.961792 
	C166.355820,714.402771 166.355820,719.391296 166.355820,724.727539 
	C170.891617,725.170532 174.969971,725.503479 179.031372,725.980774 
	C185.236389,726.710022 188.346512,729.465149 188.577835,735.457153 
	C188.872803,743.098694 188.500748,750.764587 188.486481,758.420044 
	C188.479889,761.956421 186.683273,763.677612 183.291275,763.714417 
	C170.971451,763.847961 158.641846,764.229980 146.334198,763.878723 
	C139.556122,763.685242 134.946259,758.870728 130.731033,754.016296 
	C129.657654,752.780151 128.710754,751.434143 127.688278,750.116089 
	C101.071655,776.023865 54.571945,770.482361 29.628506,741.456726 
	C0.286198,707.312378 4.908788,652.554810 40.214725,624.541931 
	C56.615768,611.528748 75.995613,605.572937 96.839653,610.257080 
	C106.170898,612.354065 116.437637,614.327087 123.974251,624.208862 
	C124.339966,620.363403 124.690697,618.346008 124.699699,616.326965 
	C124.810738,591.412415 124.918129,566.497559 124.892418,541.582947 
	C124.888863,538.135376 126.005119,536.885376 129.529099,536.951355 
	C140.151245,537.150146 150.778870,537.044312 161.404266,537.085266 
	C165.102386,537.099487 166.252487,539.439209 166.279083,542.673584 
	C166.362625,552.833618 166.483887,562.993835 166.485229,573.153992 
	C166.489426,604.791199 166.441696,636.428345 166.421219,668.065552 
	C166.412491,681.546875 166.421371,695.028137 166.389038,708.961792 
M54.964275,668.599976 
	C54.274868,670.288940 53.511963,671.951965 52.907433,673.670837 
	C46.996563,690.477173 52.908142,715.857239 72.236900,724.460022 
	C88.489914,731.693848 106.634369,728.741333 116.884315,716.365723 
	C125.357635,706.135193 128.053345,694.240479 126.423920,681.328491 
	C125.096085,670.806335 121.603500,660.499146 112.614998,654.630493 
	C92.911560,641.765808 67.462753,643.701233 54.964275,668.599976 
z"/>
<path fill="#101010" opacity="1.000000" stroke="none" 
	d="
M569.494690,624.495972 
	C603.035339,650.117493 612.064087,700.510925 583.881531,735.638611 
	C563.084473,761.560730 535.523621,771.330139 503.591888,764.993958 
	C470.467133,758.421082 450.223755,736.592346 442.395081,703.988953 
	C438.425262,687.456238 440.327148,670.892456 447.413849,655.251404 
	C459.428040,628.734802 480.597504,613.710083 508.788879,609.316162 
	C530.627808,605.912292 551.070984,611.192505 569.494690,624.495972 
M484.625153,669.271484 
	C473.107147,697.358459 487.836273,724.669739 517.778137,728.404053 
	C541.509460,731.363770 560.159241,712.441711 560.585693,686.699585 
	C560.829468,671.989197 549.666260,652.855469 536.346069,648.619019 
	C517.647705,642.672119 496.188049,645.974548 484.625153,669.271484 
z"/>
<path fill="#101010" opacity="1.000000" stroke="none" 
	d="
M341.941833,759.015381 
	C315.002686,770.571411 288.976288,769.850342 264.583038,753.835510 
	C239.065292,737.082397 226.640991,712.632446 228.513443,682.229126 
	C230.423157,651.221008 246.420853,628.826782 274.764252,615.927429 
	C309.338806,600.192200 347.961121,610.188782 369.554565,637.436157 
	C398.872375,674.430298 392.043091,734.345703 341.941833,759.015381 
M290.303864,649.608276 
	C287.641357,651.286865 284.643585,652.602478 282.370087,654.702209 
	C266.109375,669.720398 263.596832,694.735779 276.338867,712.837769 
	C291.177338,733.918030 321.204865,732.516724 334.992401,717.641968 
	C343.957764,707.969666 347.781219,696.124695 347.008545,682.789246 
	C346.351105,671.442322 335.121735,651.374084 320.874695,648.015930 
	C310.628998,645.601013 300.815948,645.626770 290.303864,649.608276 
z"/>
<path fill="#111111" opacity="1.000000" stroke="none" 
	d="
M921.011108,750.020630 
	C916.900391,753.037292 912.789673,756.053955 908.277222,758.776367 
	C906.635254,758.139038 905.237732,757.251343 904.184448,757.555481 
	C901.084961,758.450562 898.206299,760.343384 895.080566,760.845337 
	C892.269714,761.296631 891.863708,762.578735 891.981079,764.798035 
	C865.708862,769.391113 840.019714,766.998962 814.962402,758.049927 
	C813.278320,757.448486 811.184326,754.943848 811.147644,753.283203 
	C810.934998,743.638245 811.007507,733.966187 811.527039,724.332642 
	C811.929810,716.866150 812.649231,716.755798 819.720398,718.971191 
	C831.246643,722.582458 842.681458,726.686951 854.441040,729.291199 
	C864.584473,731.537476 875.139954,733.038818 885.352478,728.530396 
	C889.203186,726.830505 892.736389,724.645508 892.802673,720.107117 
	C892.870605,715.456787 889.693665,712.223694 885.553345,710.940674 
	C875.121094,707.707947 864.485046,705.138550 854.018677,702.008972 
	C845.957031,699.598328 837.748535,697.365784 830.106323,693.937500 
	C818.147339,688.572632 812.870972,678.138855 810.705994,665.621155 
	C807.321167,646.050476 814.598999,626.323730 829.329895,617.335754 
	C838.706238,611.614746 849.191833,608.779358 860.081909,608.071594 
	C878.992615,606.842407 897.596375,608.451721 915.622803,614.954285 
	C919.848145,616.478516 921.672607,618.464539 921.405396,623.167786 
	C920.933777,631.469666 921.035645,639.812439 921.139343,648.135071 
	C921.188354,652.066711 919.832764,653.164368 916.034180,652.086792 
	C907.576660,649.687500 899.107788,647.280579 890.540588,645.328186 
	C880.101135,642.949097 869.502136,641.824463 858.847656,643.925598 
	C852.605957,645.156555 849.327820,648.194397 848.751404,652.738220 
	C848.050598,658.262573 850.241394,661.888794 856.239624,664.746826 
	C858.172058,665.667664 860.244446,666.351807 862.314880,666.917114 
	C877.011169,670.929443 891.960388,674.181274 906.366699,679.045044 
	C921.920288,684.296204 931.714172,699.582947 932.252625,715.887024 
	C932.564819,725.343994 931.029785,734.266357 926.139404,742.606995 
	C922.120728,742.837830 920.241272,745.864990 921.011108,750.020630 
z"/>
<path fill="#111111" opacity="1.000000" stroke="none" 
	d="
M673.307617,763.829224 
	C663.448181,762.544800 663.394409,762.544678 663.417480,752.004150 
	C663.472046,727.012756 663.589844,702.021423 663.668457,677.030090 
	C663.730347,657.369141 663.766052,637.708252 663.832825,618.047363 
	C663.838379,616.411499 663.992493,614.776123 664.092773,612.849121 
	C672.036011,612.849121 679.666199,612.847473 687.296326,612.850037 
	C689.962524,612.850952 692.629028,612.889221 695.294922,612.863953 
	C702.389343,612.796631 702.389221,612.786560 703.123901,619.787659 
	C707.069458,617.923828 710.741333,615.910034 714.612061,614.409363 
	C731.109619,608.013489 747.978882,607.510559 765.124878,611.442627 
	C768.630066,612.246460 770.044495,613.878662 769.923767,617.625366 
	C769.618530,627.097351 769.595703,636.584045 769.714905,646.061646 
	C769.763672,649.935242 768.193298,650.823792 764.573792,650.641174 
	C753.766174,650.096008 742.905396,649.189453 732.135254,649.754944 
	C723.119812,650.228333 714.202698,652.573730 704.855408,654.155579 
	C704.855408,667.663086 704.878723,680.091309 704.850220,692.519409 
	C704.801697,713.676758 704.624573,734.834412 704.723145,755.990967 
	C704.746765,761.065979 703.163330,763.773926 697.749268,763.720947 
	C689.758728,763.642639 681.766052,763.785767 673.307617,763.829224 
z"/>
<path fill="#379999" opacity="1.000000" stroke="none" 
	d="
M691.107849,420.115417 
	C680.859070,432.492645 667.400452,439.559357 651.659851,439.711792 
	C599.351074,440.218384 547.033813,439.829559 494.720001,439.891235 
	C491.269196,439.895294 490.482300,438.430603 490.483765,435.419952 
	C490.491272,419.931946 490.366089,404.443939 490.345306,388.955872 
	C490.279297,339.812469 490.271790,290.668976 490.133270,241.525803 
	C490.120758,237.093491 491.015839,235.313400 496.192352,235.347855 
	C530.673401,235.577545 565.157410,235.366104 599.640442,235.289612 
	C603.120239,235.281891 605.061279,234.450256 607.555298,230.827881 
	C611.762207,224.717590 609.348572,218.853409 610.116333,212.417419 
	C610.119385,211.882446 610.287048,211.717056 610.612915,211.909393 
	C611.552551,214.350037 612.166382,216.598373 613.104492,220.034622 
	C614.801331,217.583130 615.902832,215.991699 617.062500,214.316223 
	C618.422180,214.827744 619.782227,215.339417 621.142273,215.851089 
	C620.782471,215.389252 620.422668,214.927414 620.062866,214.465576 
	C621.600891,213.542831 623.138916,212.620102 624.764526,211.779144 
	C624.852173,211.860931 625.027954,212.024017 625.027954,212.024017 
	C624.754333,218.767609 623.970703,225.480087 626.872498,232.034012 
	C627.963135,234.497253 629.075500,235.203476 631.599426,235.184814 
	C654.404846,235.016113 677.212219,235.061050 700.016113,234.796463 
	C703.989746,234.750381 705.373291,235.998062 705.262512,239.870453 
	C705.048645,247.351410 705.071655,254.840240 705.067078,262.325867 
	C705.043457,300.784576 704.971497,339.243469 705.077393,377.701874 
	C705.107971,388.828461 703.949280,399.641785 698.670166,409.616058 
	C696.972473,412.823547 694.690369,415.721710 692.281433,418.838440 
	C691.887207,418.915497 691.683411,418.755829 691.780518,418.409424 
	C692.538330,416.743927 693.158936,415.402954 693.866211,414.109375 
	C698.413513,405.792450 702.869141,397.233734 702.915039,387.612732 
	C703.147217,338.977173 702.988342,290.339844 703.101562,241.703461 
	C703.110229,237.972687 702.020630,236.860229 698.286438,236.895767 
	C679.966064,237.070099 661.643127,236.969055 643.321106,236.994415 
	C642.002869,236.996246 640.676758,237.175079 639.368225,237.367004 
	C633.840393,238.177826 628.654602,237.220825 623.427002,234.683731 
	C625.123596,229.995483 623.474915,228.350327 618.846558,227.545731 
	C614.615601,226.810211 611.897522,227.019104 610.073669,231.262390 
	C609.110840,233.502594 607.485168,235.457916 606.544434,236.935913 
	C603.271179,237.337982 600.468018,237.948944 597.658752,237.978836 
	C588.151001,238.080017 578.641052,237.955261 569.131958,237.953278 
	C546.146118,237.948456 523.160278,237.960373 500.174469,237.974243 
	C494.131470,237.977890 493.067444,238.945862 492.974426,244.765930 
	C492.631714,266.213440 492.241943,287.660828 492.062256,309.109863 
	C492.013763,314.897186 492.827087,320.687225 492.922302,326.481293 
	C493.076111,335.841644 492.963318,345.206390 492.962006,354.569275 
	C492.960510,365.485413 492.955688,376.401520 492.956085,387.317657 
	C492.956665,402.641541 493.070709,417.966766 492.884613,433.288361 
	C492.839111,437.034760 493.994171,438.102081 497.709900,438.094269 
	C548.678223,437.987183 599.649170,438.277466 650.613281,437.800812 
	C660.398193,437.709320 670.254883,435.204956 678.350281,428.477722 
	C682.236694,425.248199 686.611450,422.606445 690.849182,419.804047 
	C690.933289,419.909576 691.107849,420.115417 691.107849,420.115417 
z"/>
<path fill="#0F9493" opacity="1.000000" stroke="none" 
	d="
M516.510986,84.431702 
	C530.036438,87.231239 537.631592,96.751236 536.159973,108.733955 
	C534.971741,118.409157 529.449829,125.241913 520.578674,128.287750 
	C511.361816,131.452271 502.866180,128.744293 496.005280,121.596138 
	C490.177795,115.524673 488.105621,108.407181 491.165436,100.500534 
	C494.739288,91.265625 501.599915,85.694824 511.609558,84.425522 
	C513.083679,84.238594 514.599548,84.381165 516.510986,84.431702 
z"/>
<path fill="#109393" opacity="1.000000" stroke="none" 
	d="
M343.730499,237.620087 
	C351.113556,233.032791 358.709869,232.160156 366.480011,234.951447 
	C374.576050,237.859772 379.304260,243.721497 379.705200,252.507248 
	C380.117157,261.535431 376.502045,268.837860 368.975830,273.735291 
	C358.494965,280.555389 346.819855,278.509705 339.451294,268.290771 
	C333.696442,260.309814 332.599548,246.422043 343.730499,237.620087 
z"/>
<path fill="#0D9494" opacity="1.000000" stroke="none" 
	d="
M470.064697,329.988007 
	C470.064697,329.988007 470.253662,330.252991 470.346344,330.805237 
	C472.033234,335.502411 472.531769,339.425812 469.167297,343.154877 
	C468.037537,344.407074 467.705292,346.378815 467.008545,348.021667 
	C459.798187,357.563232 451.008545,360.516663 440.465485,356.940491 
	C431.694366,353.965363 426.145111,345.630798 426.295380,335.657959 
	C426.433319,326.502258 432.928375,317.901184 441.770264,315.165344 
	C451.276733,312.223846 461.037445,315.532379 466.907593,323.721527 
	C467.680511,324.799835 468.308075,325.982300 469.061523,327.763519 
	C469.434967,328.936340 469.749817,329.462158 470.064697,329.988007 
z"/>
<path fill="#285D61" opacity="1.000000" stroke="none" 
	d="
M414.806091,365.731567 
	C410.359222,364.104889 407.535248,361.335083 406.210297,356.006836 
	C404.655243,349.753113 400.506805,344.163483 401.045868,337.262115 
	C402.101715,323.743713 406.550598,311.814178 416.575012,302.161255 
	C430.052368,289.183289 446.058594,288.870209 462.921814,292.268341 
	C463.800201,292.445312 464.555420,293.233490 466.086517,294.182404 
	C466.454102,291.960052 467.002106,290.276367 466.964050,288.606018 
	C466.756592,279.492340 466.226929,270.383118 466.166687,261.269989 
	C466.127716,255.376343 466.645447,249.474915 467.024902,243.584137 
	C467.250519,240.081421 465.665863,238.970673 462.290802,238.921738 
	C447.509766,238.707428 432.730347,238.342148 417.953217,237.928589 
	C414.155640,237.822311 410.363525,237.391708 406.578033,237.017548 
	C402.575775,236.621994 401.759247,238.765686 402.023560,242.198212 
	C402.442810,247.642960 403.625153,253.266586 402.737946,258.519562 
	C401.344086,266.772675 401.217957,275.787506 394.900452,282.404236 
	C389.845001,287.699127 384.951263,293.532959 378.864288,297.329498 
	C374.467468,300.071838 368.247101,299.956757 362.809387,300.947876 
	C355.511627,302.278107 348.660339,299.829376 341.589539,298.614258 
	C331.548370,296.888763 325.511536,289.767700 320.096069,282.897888 
	C311.233307,271.654907 309.220703,258.198822 312.802795,244.143265 
	C313.008209,243.337296 313.374817,242.548416 313.434601,241.734558 
	C313.539215,240.310593 313.463745,238.873413 313.463745,236.985809 
	C305.502838,236.985809 297.701355,236.985809 289.450867,236.728546 
	C288.983673,236.129059 288.965515,235.786804 288.947388,235.444565 
	C298.085297,235.444565 307.223206,235.444565 317.103302,235.444565 
	C311.932220,250.694702 311.351318,265.581512 320.559204,279.590363 
	C329.820251,293.680084 343.064056,299.992493 359.611511,299.011047 
	C374.947174,298.101501 386.874939,290.739532 394.652252,277.498535 
	C402.216431,264.620361 402.600098,250.675079 398.264130,235.848785 
	C422.255035,235.848785 445.294220,235.848785 468.696960,235.848785 
	C468.696960,255.961502 468.696960,276.037811 468.696960,296.607941 
	C467.177216,296.231689 465.938080,296.035248 464.776703,295.620819 
	C447.464905,289.442719 431.655609,292.158295 417.866211,304.260315 
	C401.791199,318.368256 399.047943,344.375214 411.891998,361.298218 
	C412.897949,362.623596 413.802032,364.026337 414.806091,365.731567 
z"/>
<path fill="#285D61" opacity="1.000000" stroke="none" 
	d="
M253.167603,379.403137 
	C253.833923,379.657623 254.817886,380.319031 254.899399,381.077393 
	C256.077850,392.039612 258.077454,402.913544 263.917206,412.331604 
	C267.147186,417.540741 272.082520,421.782013 276.629852,426.054352 
	C279.858337,429.087585 283.538544,431.764038 287.377075,433.974884 
	C289.496704,435.195740 292.357147,435.133911 294.885498,435.640961 
	C300.478790,436.762634 306.031342,438.442261 311.677307,438.862427 
	C319.812103,439.467834 328.025665,438.978455 336.175781,439.460510 
	C337.197845,439.520935 338.786560,442.619385 338.838623,444.348572 
	C339.112061,453.425629 338.979401,462.515106 338.980530,471.600250 
	C338.983154,492.259674 338.952576,512.919250 339.022308,533.578430 
	C339.030029,535.866699 339.592804,538.154114 339.911133,540.440125 
	C340.490875,544.603088 342.689178,546.674316 347.455566,545.930603 
	C344.693268,548.904053 341.523071,551.880859 338.352844,554.857666 
	C337.772491,554.608154 337.192108,554.358643 336.611755,554.109070 
	C336.611755,549.528259 336.595184,544.947327 336.614441,540.366516 
	C336.745117,509.268616 336.799530,478.169861 337.109131,447.073669 
	C337.155792,442.386322 336.112946,441.133789 331.068665,441.049591 
	C318.824860,440.845245 306.227570,441.100006 294.446533,438.317108 
	C271.733765,432.951874 252.363159,409.894073 253.167603,379.403137 
M340.204559,550.615845 
	C340.254059,550.253662 340.303558,549.891418 340.353088,549.529236 
	C340.094482,549.526794 339.835907,549.524414 339.577301,549.522034 
	C339.616455,549.885925 339.655609,550.249817 340.204559,550.615845 
z"/>
<path fill="#285D61" opacity="1.000000" stroke="none" 
	d="
M464.342743,439.717987 
	C467.235931,431.743500 466.909332,423.474670 466.584045,415.250946 
	C466.240204,406.557983 465.609467,397.876343 465.106140,389.189636 
	C465.096588,389.024841 465.099701,388.857239 465.117645,388.693207 
	C465.375824,386.332397 465.637512,383.971924 465.898346,381.611389 
	C462.514557,381.868042 458.783813,381.314484 455.831482,382.578705 
	C451.798645,384.305573 448.589966,383.888947 444.584167,382.595551 
	C439.375061,380.913635 433.738373,380.556702 428.286560,379.624512 
	C427.806213,379.542389 427.165405,379.587158 426.880402,379.296844 
	C423.196075,375.544586 419.562744,371.742157 415.904114,367.587982 
	C426.749451,377.176208 439.485992,381.959229 454.185272,380.243927 
	C458.997589,379.682404 463.633331,377.607544 468.830475,376.083801 
	C468.830475,380.574249 468.830322,384.974152 468.830505,389.374054 
	C468.831177,404.531464 468.817383,419.688904 468.845673,434.846252 
	C468.850983,437.707703 468.850983,440.427155 464.342743,439.717987 
z"/>
<path fill="#285D61" opacity="1.000000" stroke="none" 
	d="
M348.241913,545.753418 
	C348.536621,544.446777 348.786865,542.655823 349.812286,541.675842 
	C358.891510,532.998962 368.853851,525.114807 377.055450,515.691101 
	C383.999268,507.712616 392.127991,501.471252 400.204407,494.986237 
	C401.323669,494.087494 402.775055,493.602386 404.430298,492.920227 
	C393.213806,503.819489 381.654327,514.739868 370.060303,525.623413 
	C362.919769,532.326355 355.726501,538.973206 348.241913,545.753418 
z"/>
<path fill="#285D61" opacity="1.000000" stroke="none" 
	d="
M262.963745,236.957458 
	C260.842163,237.195465 258.586090,237.076950 256.650085,237.807037 
	C255.513855,238.235535 254.169724,240.003723 254.151825,241.187912 
	C254.061737,247.151855 254.473724,253.121033 254.528702,259.090057 
	C254.618896,268.883667 257.397339,278.765472 253.390213,288.726379 
	C252.931076,277.751038 252.689804,266.494171 252.545029,255.236099 
	C252.460312,248.649246 252.529587,242.060425 252.529587,235.273407 
	C256.091858,235.273407 259.171173,235.273407 262.666962,235.671112 
	C263.012848,236.360901 262.972961,236.657104 262.963745,236.957458 
z"/>
<path fill="#379999" opacity="1.000000" stroke="none" 
	d="
M610.035583,211.965149 
	C598.037109,209.512085 593.201416,200.695633 591.830750,189.955353 
	C590.472656,179.313812 594.590698,170.571671 604.613892,165.281616 
	C604.980469,166.016586 604.984558,166.470337 604.800781,167.217392 
	C600.143066,170.138824 598.086426,174.278336 596.114441,178.991348 
	C591.578613,189.832031 594.513977,200.828903 604.480408,207.322708 
	C606.509094,208.644562 608.356201,210.245026 610.287048,211.717041 
	C610.287048,211.717056 610.119385,211.882446 610.035583,211.965149 
z"/>
<path fill="#285D61" opacity="1.000000" stroke="none" 
	d="
M407.275116,490.833527 
	C407.076385,490.053009 406.922211,488.831268 407.392334,488.502594 
	C416.011505,482.476990 419.310272,471.146210 429.534271,466.613251 
	C433.034241,465.061523 435.949371,462.190735 439.488708,459.920502 
	C429.100586,470.214935 418.355408,480.511475 407.275116,490.833527 
z"/>
<path fill="#379999" opacity="1.000000" stroke="none" 
	d="
M628.989014,165.230850 
	C646.552979,174.652756 643.594604,205.223358 625.330078,211.855103 
	C625.027954,212.024017 624.852173,211.860931 624.866333,211.451996 
	C626.101501,209.788361 627.142578,208.257828 628.573303,207.324707 
	C636.529968,202.135406 641.499573,188.151596 637.782227,180.752075 
	C635.337402,175.885696 634.203613,170.126083 629.013916,166.690735 
	C629.000977,166.009399 628.994995,165.620117 628.989014,165.230850 
z"/>
<path fill="#69B5B3" opacity="1.000000" stroke="none" 
	d="
M467.307800,347.845398 
	C467.705292,346.378815 468.037537,344.407074 469.167297,343.154877 
	C472.531769,339.425812 472.033234,335.502411 470.407043,330.956238 
	C473.110657,331.152802 475.962341,331.452698 478.539490,332.457062 
	C480.158142,333.087860 482.056610,334.562378 482.519958,336.062775 
	C482.844025,337.112183 481.117279,338.995972 479.993317,340.219330 
	C479.269928,341.006683 477.998383,341.650604 476.938629,341.705627 
	C472.633942,341.929138 469.878754,344.373718 467.307800,347.845398 
z"/>
<path fill="#054448" opacity="1.000000" stroke="none" 
	d="
M263.055756,237.343536 
	C262.972961,236.657104 263.012848,236.360901 263.072784,235.844208 
	C271.385529,235.502380 279.708893,235.385193 288.489838,235.356293 
	C288.965515,235.786804 288.983673,236.129059 289.025330,236.728302 
	C284.317535,237.254272 279.582092,237.467682 274.857269,237.822571 
	C273.226196,237.945084 271.613586,238.708618 270.006744,238.664398 
	C267.713562,238.601288 265.433472,238.064224 263.055756,237.343536 
z"/>
<path fill="#285D61" opacity="1.000000" stroke="none" 
	d="
M447.716614,453.259216 
	C448.234955,451.353119 448.493347,448.484039 450.002106,447.463501 
	C453.885071,444.837067 455.324066,438.704163 461.683533,439.551025 
	C457.298645,444.247345 452.662445,448.692810 447.716614,453.259216 
z"/>
<path fill="#2A8987" opacity="1.000000" stroke="none" 
	d="
M628.698608,164.999573 
	C628.994995,165.620117 629.000977,166.009399 628.628845,166.648636 
	C621.338257,164.975937 614.468689,160.717545 607.418335,166.644547 
	C606.897888,167.082077 605.811768,166.846649 604.988647,166.924072 
	C604.984558,166.470337 604.980469,166.016586 604.957764,165.223114 
	C612.739136,160.151718 620.566040,160.907608 628.698608,164.999573 
z"/>
<path fill="#232323" opacity="1.000000" stroke="none" 
	d="
M892.365967,764.842346 
	C891.863708,762.578735 892.269714,761.296631 895.080566,760.845337 
	C898.206299,760.343384 901.084961,758.450562 904.184448,757.555481 
	C905.237732,757.251343 906.635254,758.139038 907.922363,758.864502 
	C902.896484,761.126831 897.823669,763.006714 892.365967,764.842346 
z"/>
<path fill="#323232" opacity="1.000000" stroke="none" 
	d="
M921.325623,749.907227 
	C920.241272,745.864990 922.120728,742.837830 925.845886,742.835449 
	C924.575806,745.343933 923.107971,747.568909 921.325623,749.907227 
z"/>
<path fill="#285D61" opacity="1.000000" stroke="none" 
	d="
M253.006226,291.375885 
	C253.327377,294.807007 253.532852,298.635284 253.492279,302.698059 
	C253.127686,299.212738 253.009125,295.492859 253.006226,291.375885 
z"/>
<path fill="#285D61" opacity="1.000000" stroke="none" 
	d="
M253.119110,365.408783 
	C256.500946,368.696411 255.116455,372.758331 253.683258,376.923340 
	C253.214157,373.319519 253.110336,369.590790 253.119110,365.408783 
z"/>
<path fill="#285D61" opacity="1.000000" stroke="none" 
	d="
M440.255585,459.815918 
	C439.799225,455.252655 443.462128,454.477783 446.994629,453.301941 
	C445.107758,455.534485 442.848938,457.661469 440.255585,459.815918 
z"/>
<path fill="#285D61" opacity="1.000000" stroke="none" 
	d="
M253.144745,324.402771 
	C256.329132,326.679932 255.164230,329.750519 253.638580,332.933533 
	C253.192657,330.312225 253.109039,327.578278 253.144745,324.402771 
z"/>
<path fill="#285D61" opacity="1.000000" stroke="none" 
	d="
M253.107391,343.448303 
	C253.459366,346.945770 253.696808,350.892853 253.586914,354.943024 
	C253.157333,351.330048 253.075089,347.613983 253.107391,343.448303 
z"/>
<path fill="#285D61" opacity="1.000000" stroke="none" 
	d="
M253.113159,312.358276 
	C253.455536,313.271362 253.673691,314.580994 253.568497,315.964569 
	C253.159760,314.943970 253.074356,313.849396 253.113159,312.358276 
z"/>
<path fill="#69B5B3" opacity="1.000000" stroke="none" 
	d="
M470.096436,329.670288 
	C469.749817,329.462158 469.434967,328.936340 469.172729,328.088257 
	C469.526306,328.294830 469.827240,328.823700 470.096436,329.670288 
z"/>
<path fill="#379999" opacity="1.000000" stroke="none" 
	d="
M691.987183,418.997742 
	C691.922485,419.368835 691.757812,419.657715 691.350525,420.031006 
	C691.107849,420.115417 690.933289,419.909576 690.999634,419.644867 
	C691.267700,419.168091 691.473572,418.959991 691.683411,418.755829 
	C691.683411,418.755829 691.887207,418.915497 691.987183,418.997742 
z"/>
<path fill="#285D61" opacity="1.000000" stroke="none" 
	d="
M415.747772,366.835449 
	C415.455078,367.005676 415.227997,366.836731 415.004761,366.366577 
	C415.315430,366.100006 415.583710,366.243622 415.747772,366.835449 
z"/>
<path fill="#FDFDFD" opacity="1.000000" stroke="none" 
	d="
M55.110153,668.254028 
	C67.462753,643.701233 92.911560,641.765808 112.614998,654.630493 
	C121.603500,660.499146 125.096085,670.806335 126.423920,681.328491 
	C128.053345,694.240479 125.357635,706.135193 116.884315,716.365723 
	C106.634369,728.741333 88.489914,731.693848 72.236900,724.460022 
	C52.908142,715.857239 46.996563,690.477173 52.907433,673.670837 
	C53.511963,671.951965 54.274868,670.288940 55.110153,668.254028 
z"/>
<path fill="#FDFDFD" opacity="1.000000" stroke="none" 
	d="
M484.800659,668.937500 
	C496.188049,645.974548 517.647705,642.672119 536.346069,648.619019 
	C549.666260,652.855469 560.829468,671.989197 560.585693,686.699585 
	C560.159241,712.441711 541.509460,731.363770 517.778137,728.404053 
	C487.836273,724.669739 473.107147,697.358459 484.800659,668.937500 
z"/>
<path fill="#FDFDFD" opacity="1.000000" stroke="none" 
	d="
M290.641205,649.419861 
	C300.815948,645.626770 310.628998,645.601013 320.874695,648.015930 
	C335.121735,651.374084 346.351105,671.442322 347.008545,682.789246 
	C347.781219,696.124695 343.957764,707.969666 334.992401,717.641968 
	C321.204865,732.516724 291.177338,733.918030 276.338867,712.837769 
	C263.596832,694.735779 266.109375,669.720398 282.370087,654.702209 
	C284.643585,652.602478 287.641357,651.286865 290.641205,649.419861 
z"/>
<path fill="#019494" opacity="1.000000" stroke="none" 
	d="
M691.780518,418.409424 
	C691.473572,418.959991 691.267700,419.168091 690.915527,419.539337 
	C686.611450,422.606445 682.236694,425.248199 678.350281,428.477722 
	C670.254883,435.204956 660.398193,437.709320 650.613281,437.800812 
	C599.649170,438.277466 548.678223,437.987183 497.709900,438.094269 
	C493.994171,438.102081 492.839111,437.034760 492.884613,433.288361 
	C493.070709,417.966766 492.956665,402.641541 492.956085,387.317657 
	C492.955688,376.401520 492.960510,365.485413 492.962006,354.569275 
	C492.963318,345.206390 493.076111,335.841644 492.922302,326.481293 
	C492.827087,320.687225 492.013763,314.897186 492.062256,309.109863 
	C492.241943,287.660828 492.631714,266.213440 492.974426,244.765930 
	C493.067444,238.945862 494.131470,237.977890 500.174469,237.974243 
	C523.160278,237.960373 546.146118,237.948456 569.131958,237.953278 
	C578.641052,237.955261 588.151001,238.080017 597.658752,237.978836 
	C600.468018,237.948944 603.271179,237.337982 606.544434,236.935913 
	C607.485168,235.457916 609.110840,233.502594 610.073669,231.262390 
	C611.897522,227.019104 614.615601,226.810211 618.846558,227.545731 
	C623.474915,228.350327 625.123596,229.995483 623.427002,234.683731 
	C628.654602,237.220825 633.840393,238.177826 639.368225,237.367004 
	C640.676758,237.175079 642.002869,236.996246 643.321106,236.994415 
	C661.643127,236.969055 679.966064,237.070099 698.286438,236.895767 
	C702.020630,236.860229 703.110229,237.972687 703.101562,241.703461 
	C702.988342,290.339844 703.147217,338.977173 702.915039,387.612732 
	C702.869141,397.233734 698.413513,405.792450 693.866211,414.109375 
	C693.158936,415.402954 692.538330,416.743927 691.780518,418.409424 
z"/>
<path fill="#059693" opacity="1.000000" stroke="none" 
	d="
M604.800781,167.217377 
	C605.811768,166.846649 606.897888,167.082077 607.418335,166.644547 
	C614.468689,160.717545 621.338257,164.975937 628.635742,166.940704 
	C634.203613,170.126083 635.337402,175.885696 637.782227,180.752075 
	C641.499573,188.151596 636.529968,202.135406 628.573303,207.324707 
	C627.142578,208.257828 626.101501,209.788361 624.778687,211.370224 
	C623.138916,212.620102 621.600891,213.542831 620.062866,214.465576 
	C620.422668,214.927414 620.782471,215.389252 621.142273,215.851089 
	C619.782227,215.339417 618.422180,214.827744 617.062500,214.316223 
	C615.902832,215.991699 614.801331,217.583130 613.104492,220.034622 
	C612.166382,216.598373 611.552551,214.350037 610.612915,211.909378 
	C608.356201,210.245026 606.509094,208.644562 604.480408,207.322708 
	C594.513977,200.828903 591.578613,189.832031 596.114441,178.991348 
	C598.086426,174.278336 600.143066,170.138824 604.800781,167.217377 
z"/>
<path fill="#04525A" opacity="1.000000" stroke="none" 
	d="
M339.949646,550.614746 
	C339.655609,550.249817 339.616455,549.885925 339.577301,549.522034 
	C339.835907,549.524414 340.094482,549.526794 340.353088,549.529236 
	C340.303558,549.891418 340.254059,550.253662 339.949646,550.614746 
z"/>
</svg>